# xmcd
#
# Track frame offsets: 
#        150
#        17666
#        41709
#        76745
#        95518
#        129769
#        172028
#
# Disc length: 2685 seconds
#
# Revision: 0
# Processed by: cddbd v1.5.1PL2 Copyright (c) Steve Scherf et al.
# Submitted via: ExactAudioCopy v0.95b1
#
DISCID=4a0a7b07
DTITLE=The Hoax - Bremen 1999 1
DYEAR=1900
DGENRE=
TTITLE0=Hoax - Twenty Ton Weight
TTITLE1=Hoax - Fist Full Of Dirt
TTITLE2=Hoax - Groove Breaker
TTITLE3=Hoax - High Expectations
TTITLE4=Hoax - Hungry Man's Blues
TTITLE5=Hoax - Superstition
TTITLE6=Hoax - Feeding Time
EXTD=
EXTT0=
EXTT1=
EXTT2=
EXTT3=
EXTT4=
EXTT5=
EXTT6=
PLAYORDER=
